# xmcd
#
# Track frame offsets:
#	150
#	10812
#	18808
#	28307
#	37947
#	55178
#	68146
#	82352
#	98425
#	112500
#
# Disc length: 1694 seconds
#
# Revision: 0
# Processed by: cddbd v1.5.2PL0 Copyright (c) Steve Scherf et al.
# Submitted via: EasyCDDAExtractor 16.0.6.1
#
DISCID=6c069c0a
DTITLE=Συλλογικός δίσκος - Λαϊκό τραγούδι στον κινηματογράφο 2
DYEAR=2008
DGENRE=Λαϊκή
TTITLE0=Βάνου Τζένη - Τα νιάτα θέλουν έρωτα [Μίμης Πλέσσας-Κώστας Ασημακόπουλο
TTITLE0=ς]
TTITLE1=Βλαχοπούλου Ρένα-χορωδία - Έχω στενάχωρη καρδιά [Μίμης Πλέσσας-Γιάννης
TTITLE1=Δαλιανίδης]
TTITLE2=Καρέζη Τζένη - Μακριά σου ένα χρόνο [Μίμης Πλέσσας-Αλέκος Σακελλάριος]
TTITLE3=Κυριακός Πέτρος-χορωδία - Το σαραβαλάκι μου [Μίμης Πλέσσας-Αλέκος Σακε
TTITLE3=λλάριος]
TTITLE4=Λίντα Μαίρη-Χιώτης Μανώλης - Η αγάπη μου δεν σβήνει [Μανώλης Χιώτης]
TTITLE5=Λίντα Μαίρη-Χιώτης Μανώλης - Θάλασσα μόνο κι ουρανό [Μανώλης Χιώτης]
TTITLE6=Φυτούση Ζωή - Τα δάκρυά μου είναι καυτά [Σταύρος Ξαρχάκος-Βαγγέλης Γκο
TTITLE6=ύφας]
TTITLE7=Πάνου Πόλυ - Κλαίω και σ' αναζητώ [Βασίλης Τσιτσάνης]
TTITLE8=Αγγελόπουλος Μανώλης - Η αγάπη του τσιγγάνου [Θεόδωρος Δερβενιώτης]
TTITLE9=Αγγελόπουλος Μανώλης - Το κατάκλειστο σπίτι [Θεόδωρος Δερβενιώτης-Ευτ.
TTITLE9=Παπαγιαννοπούλου]
EXTD=
EXTT0=
EXTT1=
EXTT2=
EXTT3=
EXTT4=
EXTT5=
EXTT6=
EXTT7=
EXTT8=
EXTT9=
PLAYORDER=
